<?xml version="1.0" standalone="no"?>
<!DOCTYPE svg PUBLIC "-//W3C//DTD SVG 20010904//EN"
 "http://www.w3.org/TR/2001/REC-SVG-20010904/DTD/svg10.dtd">
<svg version="1.0" xmlns="http://www.w3.org/2000/svg"
 width="49.000000pt" height="49.000000pt" viewBox="0 0 49.000000 49.000000"
 preserveAspectRatio="xMidYMid meet">

<g transform="translate(0.000000,49.000000) scale(0.100000,-0.100000)"
fill="#000000" stroke="none">
<path d="M303 427 l-53 -22 0 -55 c0 -32 8 -72 19 -96 18 -40 75 -94 99 -94
17 0 81 59 96 89 8 14 17 54 21 89 l7 62 -56 25 c-67 30 -67 30 -133 2z m127
-73 c0 -22 -60 -94 -80 -94 -18 0 -54 55 -45 70 9 15 33 12 42 -5 7 -13 13
-10 31 15 24 32 52 40 52 14z"/>
<path d="M6 344 c-3 -9 -6 -27 -6 -40 0 -24 1 -24 105 -24 l105 0 0 40 0 40
-99 0 c-81 0 -100 -3 -105 -16z"/>
<path d="M0 141 c0 -110 -21 -101 245 -101 266 0 245 -8 245 97 l0 65 -46 -41
c-30 -26 -56 -41 -74 -41 -29 0 -107 51 -117 75 -4 12 -30 15 -129 15 l-124 0
0 -69z m155 -1 c0 -11 -13 -16 -47 -18 -43 -3 -48 -1 -48 18 0 19 5 21 48 18
34 -2 47 -7 47 -18z"/>
</g>
</svg>
